<svg xmlns="http://www.w3.org/2000/svg" xmlns:xlink="http://www.w3.org/1999/xlink" width="103" height="103" viewBox="0 0 103 103">
<defs><path id="st66a" d="M1434.5 6866a51.5 51.5 0 1 1 0 103 51.5 51.5 0 0 1 0-103z"/>
<path id="st66b" d="M1435 6877a41 41 0 1 1 0 82 41 41 0 0 1 0-82z"/>
<path id="st66e" d="M1434.5 6889a28.5 28.5 0 1 1 0 57 28.5 28.5 0 0 1 0-57z"/>
<path id="st66f" d="M1434 6923h1v9h-1z"/><path id="st66g" d="M1427.65 6926.35l.7-.7 6 6-.7.7z"/>
<path id="st66h" d="M1440.35 6926.35l-.7-.7-6 6 .7.7z"/>
<path id="st66i" d="M1434 6908h1v9h-1z"/><path id="st66j" d="M1427.65 6911.64l.7.71 6-6-.7-.7z"/><path id="st66k" d="M1440.35 6911.64l-.7.71-6-6 .7-.7z"/><clipPath id="st66c"><use fill="#fff" xlink:href="#st66a"/></clipPath><clipPath id="st66d"><use fill="#fff" xlink:href="#st66b"/></clipPath></defs><g><g transform="translate(-1383 -6866)"><g><use fill="#fff" xlink:href="#st66a"/><use fill="#fff" fill-opacity="0" stroke="#ffe24e" stroke-linecap="round" stroke-linejoin="round" stroke-miterlimit="50" stroke-opacity=".9" stroke-width="4" clip-path="url(&quot;#st66c&quot;)" xlink:href="#st66a"/></g><g><use fill="#fff" xlink:href="#st66b"/><use fill="#fff" fill-opacity="0" stroke="#ffe24e" stroke-linecap="round" stroke-linejoin="round" stroke-miterlimit="50" stroke-opacity=".9" stroke-width="4" clip-path="url(&quot;#st66d&quot;)" xlink:href="#st66b"/></g><g><use fill="#ffe24e" xlink:href="#st66e"/></g><g><g><use xlink:href="#st66f"/></g><g><use xlink:href="#st66g"/></g><g><use xlink:href="#st66h"/></g></g><g><g><use xlink:href="#st66i"/></g><g><use xlink:href="#st66j"/></g><g><use xlink:href="#st66k"/></g></g></g></g></svg>
