<svg xmlns="http://www.w3.org/2000/svg" xmlns:xlink="http://www.w3.org/1999/xlink" width="94" height="14" viewBox="0 0 94 14"><defs><path id="c620a" d="M775 3112.07v-4h4v4zm10 0v-4h4v4zm9.99 0v-4h4v4zm10 0v-4h4v4zm9.99 0v-4h4v4zm-39.98-9.99v-4h4v4zm10 0v-4h4v4zm9.99 0v-4h4v4zm10 0v-4h4v4zm9.99 0v-4h4v4zm10 0v-4h4v4zm9.99 0v-4h4v4zm10 0v-4h4v4zm9.99 0v-4h4v4zm10 0v-4h4v4zm-39.99 10v-4h4v4zm10 0v-4h4v4zm10 0v-4h4v4zm9.99 0v-4h4v4zm10 0v-4h4v4z"/></defs><g><g transform="translate(-775 -3098)"><use fill="#8fc3e3" xlink:href="#c620a"/></g></g></svg>